<mxfile host="Electron" agent="Mozilla/5.0 (Windows NT 10.0; Win64; x64) AppleWebKit/537.36 (KHTML, like Gecko) draw.io/24.7.17 Chrome/128.0.6613.36 Electron/32.0.1 Safari/537.36" version="24.7.17">
  <diagram name="Pagina-1" id="iGNAzk1GG4EekFOMHQXj">
    <mxGraphModel dx="1295" dy="768" grid="1" gridSize="10" guides="1" tooltips="1" connect="1" arrows="1" fold="1" page="1" pageScale="1" pageWidth="827" pageHeight="1169" math="0" shadow="0">
      <root>
        <mxCell id="0" />
        <mxCell id="1" parent="0" />
        <mxCell id="zchSeXB4hqKme6gPftZg-2" value="Arbitro" style="swimlane;childLayout=stackLayout;horizontal=1;startSize=50;horizontalStack=0;rounded=1;fontSize=14;fontStyle=0;strokeWidth=2;resizeParent=0;resizeLast=1;shadow=0;dashed=0;align=center;arcSize=4;whiteSpace=wrap;html=1;" vertex="1" parent="1">
          <mxGeometry x="600" y="40" width="160" height="120" as="geometry" />
        </mxCell>
        <mxCell id="zchSeXB4hqKme6gPftZg-3" value="&lt;b&gt;Cognome (PK)&lt;/b&gt;&lt;div&gt;Nome&lt;/div&gt;&lt;div&gt;Città&lt;/div&gt;&lt;div&gt;Regione&lt;/div&gt;" style="align=left;strokeColor=none;fillColor=none;spacingLeft=4;fontSize=12;verticalAlign=top;resizable=0;rotatable=0;part=1;html=1;" vertex="1" parent="zchSeXB4hqKme6gPftZg-2">
          <mxGeometry y="50" width="160" height="70" as="geometry" />
        </mxCell>
        <mxCell id="zchSeXB4hqKme6gPftZg-6" value="" style="endArrow=ERmandOne;html=1;rounded=0;startArrow=ERoneToMany;startFill=0;targetPerimeterSpacing=0;sourcePerimeterSpacing=0;endFill=0;startSize=12;endSize=12;" edge="1" parent="1">
          <mxGeometry width="50" height="50" relative="1" as="geometry">
            <mxPoint x="660" y="240" as="sourcePoint" />
            <mxPoint x="660" y="160" as="targetPoint" />
          </mxGeometry>
        </mxCell>
        <mxCell id="zchSeXB4hqKme6gPftZg-7" value="(1, N)" style="text;html=1;align=center;verticalAlign=middle;whiteSpace=wrap;rounded=0;" vertex="1" parent="1">
          <mxGeometry x="590" y="160" width="60" height="30" as="geometry" />
        </mxCell>
        <mxCell id="zchSeXB4hqKme6gPftZg-9" value="Partita" style="swimlane;childLayout=stackLayout;horizontal=1;startSize=50;horizontalStack=0;rounded=1;fontSize=14;fontStyle=0;strokeWidth=2;resizeParent=0;resizeLast=1;shadow=0;dashed=0;align=center;arcSize=4;whiteSpace=wrap;html=1;" vertex="1" parent="1">
          <mxGeometry x="600" y="240" width="160" height="120" as="geometry" />
        </mxCell>
        <mxCell id="zchSeXB4hqKme6gPftZg-10" value="&lt;b&gt;Numero, Giornata (PK)&lt;/b&gt;&lt;div&gt;Risultato&lt;/div&gt;" style="align=left;strokeColor=none;fillColor=none;spacingLeft=4;fontSize=12;verticalAlign=top;resizable=0;rotatable=0;part=1;html=1;" vertex="1" parent="zchSeXB4hqKme6gPftZg-9">
          <mxGeometry y="50" width="160" height="70" as="geometry" />
        </mxCell>
        <mxCell id="zchSeXB4hqKme6gPftZg-11" value="(1, 1)" style="text;html=1;align=center;verticalAlign=middle;whiteSpace=wrap;rounded=0;" vertex="1" parent="1">
          <mxGeometry x="590" y="210" width="60" height="30" as="geometry" />
        </mxCell>
        <mxCell id="zchSeXB4hqKme6gPftZg-12" value="Arbitraggio" style="text;html=1;align=center;verticalAlign=middle;whiteSpace=wrap;rounded=0;" vertex="1" parent="1">
          <mxGeometry x="660" y="190" width="60" height="30" as="geometry" />
        </mxCell>
        <mxCell id="zchSeXB4hqKme6gPftZg-13" value="" style="endArrow=ERoneToMany;html=1;rounded=0;entryX=0;entryY=0;entryDx=0;entryDy=0;endFill=0;startSize=12;endSize=12;startArrow=ERmandOne;startFill=0;exitX=1;exitY=0;exitDx=0;exitDy=0;" edge="1" parent="1" source="zchSeXB4hqKme6gPftZg-15" target="zchSeXB4hqKme6gPftZg-10">
          <mxGeometry width="50" height="50" relative="1" as="geometry">
            <mxPoint x="470" y="290" as="sourcePoint" />
            <mxPoint x="510" y="290" as="targetPoint" />
          </mxGeometry>
        </mxCell>
        <mxCell id="zchSeXB4hqKme6gPftZg-14" value="Giornata" style="swimlane;childLayout=stackLayout;horizontal=1;startSize=50;horizontalStack=0;rounded=1;fontSize=14;fontStyle=0;strokeWidth=2;resizeParent=0;resizeLast=1;shadow=0;dashed=0;align=center;arcSize=4;whiteSpace=wrap;html=1;" vertex="1" parent="1">
          <mxGeometry x="180" y="240" width="160" height="120" as="geometry" />
        </mxCell>
        <mxCell id="zchSeXB4hqKme6gPftZg-15" value="&lt;b&gt;Numero (PK)&lt;/b&gt;&lt;div&gt;&lt;b&gt;Girone (PK)&lt;/b&gt;&lt;/div&gt;&lt;div&gt;Data (Giorno, Mese, Anno)&lt;/div&gt;" style="align=left;strokeColor=none;fillColor=none;spacingLeft=4;fontSize=12;verticalAlign=top;resizable=0;rotatable=0;part=1;html=1;" vertex="1" parent="zchSeXB4hqKme6gPftZg-14">
          <mxGeometry y="50" width="160" height="70" as="geometry" />
        </mxCell>
        <mxCell id="zchSeXB4hqKme6gPftZg-16" value="Collocazione" style="text;html=1;align=center;verticalAlign=middle;whiteSpace=wrap;rounded=0;" vertex="1" parent="1">
          <mxGeometry x="430" y="285" width="60" height="30" as="geometry" />
        </mxCell>
        <mxCell id="zchSeXB4hqKme6gPftZg-21" value="" style="endArrow=ERoneToMany;html=1;rounded=0;startArrow=ERmandOne;startFill=0;endSize=12;startSize=12;endFill=0;" edge="1" parent="1">
          <mxGeometry width="50" height="50" relative="1" as="geometry">
            <mxPoint x="640" y="440" as="sourcePoint" />
            <mxPoint x="640" y="360" as="targetPoint" />
          </mxGeometry>
        </mxCell>
        <mxCell id="zchSeXB4hqKme6gPftZg-22" value="" style="endArrow=ERoneToMany;html=1;rounded=0;startArrow=ERmandOne;startFill=0;endFill=0;endSize=12;startSize=12;" edge="1" parent="1">
          <mxGeometry width="50" height="50" relative="1" as="geometry">
            <mxPoint x="720" y="440" as="sourcePoint" />
            <mxPoint x="720" y="360" as="targetPoint" />
          </mxGeometry>
        </mxCell>
        <mxCell id="zchSeXB4hqKme6gPftZg-23" value="Ospite" style="text;html=1;align=center;verticalAlign=middle;whiteSpace=wrap;rounded=0;" vertex="1" parent="1">
          <mxGeometry x="590" y="380" width="60" height="30" as="geometry" />
        </mxCell>
        <mxCell id="zchSeXB4hqKme6gPftZg-24" value="Casa" style="text;html=1;align=center;verticalAlign=middle;whiteSpace=wrap;rounded=0;" vertex="1" parent="1">
          <mxGeometry x="710" y="380" width="60" height="30" as="geometry" />
        </mxCell>
        <mxCell id="zchSeXB4hqKme6gPftZg-25" value="Squadra" style="swimlane;childLayout=stackLayout;horizontal=1;startSize=50;horizontalStack=0;rounded=1;fontSize=14;fontStyle=0;strokeWidth=2;resizeParent=0;resizeLast=1;shadow=0;dashed=0;align=center;arcSize=4;whiteSpace=wrap;html=1;" vertex="1" parent="1">
          <mxGeometry x="600" y="440" width="160" height="120" as="geometry" />
        </mxCell>
        <mxCell id="zchSeXB4hqKme6gPftZg-26" value="Allenatore&lt;div&gt;&lt;b&gt;Nome (PK)&lt;/b&gt;&lt;/div&gt;&lt;div&gt;Città&lt;/div&gt;" style="align=left;strokeColor=none;fillColor=none;spacingLeft=4;fontSize=12;verticalAlign=top;resizable=0;rotatable=0;part=1;html=1;" vertex="1" parent="zchSeXB4hqKme6gPftZg-25">
          <mxGeometry y="50" width="160" height="70" as="geometry" />
        </mxCell>
        <mxCell id="zchSeXB4hqKme6gPftZg-31" value="" style="endArrow=ERoneToMany;html=1;rounded=0;exitX=0.5;exitY=0;exitDx=0;exitDy=0;endSize=12;startSize=12;startArrow=none;startFill=0;endFill=0;" edge="1" parent="1" source="zchSeXB4hqKme6gPftZg-32">
          <mxGeometry width="50" height="50" relative="1" as="geometry">
            <mxPoint x="260" y="480" as="sourcePoint" />
            <mxPoint x="260" y="360" as="targetPoint" />
            <Array as="points">
              <mxPoint x="260" y="420" />
            </Array>
          </mxGeometry>
        </mxCell>
        <mxCell id="zchSeXB4hqKme6gPftZg-32" value="&lt;div&gt;Posizione&lt;/div&gt;" style="text;html=1;align=center;verticalAlign=middle;whiteSpace=wrap;rounded=0;" vertex="1" parent="1">
          <mxGeometry x="230" y="485" width="60" height="30" as="geometry" />
        </mxCell>
        <mxCell id="zchSeXB4hqKme6gPftZg-33" value="" style="endArrow=ERoneToMany;html=1;rounded=0;endFill=0;startSize=6;endSize=12;" edge="1" parent="1">
          <mxGeometry width="50" height="50" relative="1" as="geometry">
            <mxPoint x="290" y="499.5" as="sourcePoint" />
            <mxPoint x="600" y="499.5" as="targetPoint" />
            <Array as="points">
              <mxPoint x="530" y="499.5" />
              <mxPoint x="570" y="499.5" />
            </Array>
          </mxGeometry>
        </mxCell>
        <mxCell id="zchSeXB4hqKme6gPftZg-35" value="Giocatore" style="swimlane;childLayout=stackLayout;horizontal=1;startSize=20;horizontalStack=0;rounded=1;fontSize=14;fontStyle=0;strokeWidth=2;resizeParent=0;resizeLast=1;shadow=0;dashed=0;align=center;arcSize=4;whiteSpace=wrap;html=1;" vertex="1" parent="1">
          <mxGeometry x="560" y="720" width="200" height="120" as="geometry" />
        </mxCell>
        <mxCell id="zchSeXB4hqKme6gPftZg-36" value="&lt;b&gt;CF (PK)&lt;/b&gt;&lt;div&gt;Cognome&lt;/div&gt;&lt;div&gt;Nome&lt;/div&gt;&lt;div&gt;Ruolo&lt;/div&gt;&lt;div&gt;Città nascita&lt;/div&gt;&lt;div&gt;Data nascita (Giorno, Mese, Anno)&lt;/div&gt;" style="align=left;strokeColor=none;fillColor=none;spacingLeft=4;fontSize=12;verticalAlign=top;resizable=0;rotatable=0;part=1;html=1;" vertex="1" parent="zchSeXB4hqKme6gPftZg-35">
          <mxGeometry y="20" width="200" height="100" as="geometry" />
        </mxCell>
        <mxCell id="zchSeXB4hqKme6gPftZg-41" value="" style="endArrow=ERmandOne;html=1;rounded=0;startArrow=none;startFill=0;endFill=0;startSize=6;endSize=12;" edge="1" parent="1">
          <mxGeometry width="50" height="50" relative="1" as="geometry">
            <mxPoint x="660" y="630" as="sourcePoint" />
            <mxPoint x="660" y="560" as="targetPoint" />
          </mxGeometry>
        </mxCell>
        <mxCell id="zchSeXB4hqKme6gPftZg-42" value="" style="endArrow=none;html=1;rounded=0;exitX=0.5;exitY=0;exitDx=0;exitDy=0;startArrow=ERoneToMany;startFill=0;startSize=12;" edge="1" parent="1" source="zchSeXB4hqKme6gPftZg-35">
          <mxGeometry width="50" height="50" relative="1" as="geometry">
            <mxPoint x="630" y="700" as="sourcePoint" />
            <mxPoint x="660" y="660" as="targetPoint" />
          </mxGeometry>
        </mxCell>
        <mxCell id="zchSeXB4hqKme6gPftZg-43" value="Appartenenza" style="text;html=1;align=center;verticalAlign=middle;whiteSpace=wrap;rounded=0;" vertex="1" parent="1">
          <mxGeometry x="630" y="630" width="60" height="30" as="geometry" />
        </mxCell>
        <mxCell id="zchSeXB4hqKme6gPftZg-44" value="" style="endArrow=none;html=1;rounded=0;startArrow=ERzeroToMany;startFill=0;endSize=12;startSize=12;" edge="1" parent="1">
          <mxGeometry width="50" height="50" relative="1" as="geometry">
            <mxPoint x="760" y="740" as="sourcePoint" />
            <mxPoint x="830" y="740" as="targetPoint" />
          </mxGeometry>
        </mxCell>
        <mxCell id="zchSeXB4hqKme6gPftZg-45" value="Partecipazione&lt;div&gt;- Ruolo&lt;/div&gt;" style="text;html=1;align=center;verticalAlign=middle;whiteSpace=wrap;rounded=0;" vertex="1" parent="1">
          <mxGeometry x="840" y="720" width="60" height="30" as="geometry" />
        </mxCell>
        <mxCell id="zchSeXB4hqKme6gPftZg-46" value="" style="endArrow=none;html=1;rounded=0;startArrow=ERoneToMany;startFill=0;endSize=12;startSize=12;" edge="1" parent="1">
          <mxGeometry width="50" height="50" relative="1" as="geometry">
            <mxPoint x="760" y="290" as="sourcePoint" />
            <mxPoint x="920" y="290" as="targetPoint" />
          </mxGeometry>
        </mxCell>
        <mxCell id="zchSeXB4hqKme6gPftZg-47" value="" style="endArrow=none;html=1;rounded=0;" edge="1" parent="1">
          <mxGeometry width="50" height="50" relative="1" as="geometry">
            <mxPoint x="920" y="740" as="sourcePoint" />
            <mxPoint x="920" y="290" as="targetPoint" />
          </mxGeometry>
        </mxCell>
        <mxCell id="zchSeXB4hqKme6gPftZg-49" value="Relazione N a N perché una giornata ha tante squadre in classifica con le varie posizioni" style="text;html=1;align=center;verticalAlign=middle;whiteSpace=wrap;rounded=0;" vertex="1" parent="1">
          <mxGeometry x="320" y="520" width="130" height="30" as="geometry" />
        </mxCell>
        <mxCell id="zchSeXB4hqKme6gPftZg-50" value="Per ricavare una classifica potremmo dare un attributo &quot;punti&quot; alla relazione &quot;posizione&quot;, lo svantaggio che comporta è che più dati aggiungiamo, più c&#39;è rischio di incongruenza, perché devo aggiornare tutte le sezioni in cui è presente quel dato (congruenza). Questo lavoro di aggiornamento può essere svolto da un trigger: aggiorna i dati nelle celle in cui c&#39;è un dato in determinate condizioni. Ad una congruenza si accompagna un trigger che è un sistema automatico" style="text;html=1;align=center;verticalAlign=middle;whiteSpace=wrap;rounded=0;" vertex="1" parent="1">
          <mxGeometry x="40" y="515" width="160" height="30" as="geometry" />
        </mxCell>
      </root>
    </mxGraphModel>
  </diagram>
</mxfile>
